<?xml version="1.0" standalone="no"?>
<!DOCTYPE svg PUBLIC "-//W3C//DTD SVG 20010904//EN"
 "http://www.w3.org/TR/2001/REC-SVG-20010904/DTD/svg10.dtd">
<svg version="1.0" xmlns="http://www.w3.org/2000/svg"
 width="180.000000pt" height="180.000000pt" viewBox="0 0 180.000000 180.000000"
 preserveAspectRatio="xMidYMid meet">

<g transform="translate(0.000000,180.000000) scale(0.100000,-0.100000)"
fill="#000000" stroke="none">
<path d="M1151 1325 l-66 -64 105 -106 c57 -58 110 -105 116 -105 21 0 124
118 124 141 0 28 -167 199 -194 199 -10 0 -48 -29 -85 -65z"/>
<path d="M697 872 l-317 -317 0 -113 0 -112 107 0 107 0 323 322 323 323 -107
107 c-59 60 -110 108 -113 108 -3 0 -148 -143 -323 -318z"/>
</g>
</svg>
